<?xml version="1.0" encoding="UTF-8"?>
<svg version="1.1" xmlns="http://www.w3.org/2000/svg" width="192" height="192">
<path d="M0 0 C18.90689962 15.58757033 33.11907613 37.23841444 36 62 C38.07547047 91.3505373 32.56815164 115.90370704 13.70703125 138.78125 C-2.30160634 157.07683582 -24.58260867 170.48550768 -49.21777344 172.22753906 C-78.86421276 173.54534277 -102.83351613 167.16129839 -125.375 147.4375 C-143.3726075 130.57017703 -155.27669608 108.17320354 -156.3828125 83.2890625 C-157.11886896 53.81089907 -149.54623447 29.94720637 -129.1640625 8.19921875 C-94.60358381 -26.92271176 -38.61104408 -30.2283832 0 0 Z " fill="#FEFEFE" transform="translate(156,20)"/>
<path d="M0 0 C0.65418915 -0.01182816 1.3083783 -0.02365631 1.98239136 -0.0358429 C4.13980872 -0.06867563 6.29596271 -0.07168694 8.45361328 -0.0715332 C9.95810458 -0.08185163 11.46259093 -0.09291517 12.96707153 -0.10469055 C16.11945544 -0.12411564 19.2713958 -0.1275472 22.42382812 -0.12109375 C26.45517477 -0.11510047 30.48421636 -0.15930813 34.51508904 -0.21698284 C37.62252583 -0.25403617 40.72940992 -0.25888081 43.83703995 -0.25470924 C45.32258592 -0.25757484 46.80815535 -0.27160008 48.29348373 -0.2971859 C59.81560021 -0.47479272 59.81560021 -0.47479272 63.56011963 1.98472595 C65.14004926 3.76508919 66.27302657 5.47317973 67.39892578 7.56518555 C68.00478516 8.48936279 68.61064453 9.41354004 69.23486328 10.36572266 C69.74275391 11.26556885 70.25064453 12.16541504 70.77392578 13.0925293 C71.36036865 14.12071777 71.94681152 15.14890625 72.55102539 16.20825195 C73.16083252 17.29541504 73.77063965 18.38257813 74.39892578 19.50268555 C75.71146592 21.82242425 77.02512032 24.14149545 78.34033203 26.4597168 C78.67279434 27.04754944 79.00525665 27.63538208 79.34779358 28.24102783 C81.65937964 32.31290833 84.05220029 36.3280263 86.48876953 40.3269043 C87.13523438 41.39755127 87.78169922 42.46819824 88.44775391 43.57128906 C89.67911 45.60471385 90.92334099 47.6304144 92.18212891 49.64697266 C97.45997429 58.43801797 97.45997429 58.43801797 97.01049805 63.43725586 C95.55222923 68.51121635 92.63356477 72.90760908 89.89892578 77.37768555 C88.87992434 79.08838551 87.86093551 80.79909309 86.84260559 82.51019287 C85.77130321 84.30404323 84.691969 86.0928659 83.61132812 87.88110352 C81.36373822 91.60968375 79.16932561 95.36804203 76.98095703 99.1315918 C75.90669885 100.97224535 74.83153314 102.81236455 73.75585938 104.65219116 C73.06396095 105.83667096 72.37335097 107.0219044 71.68408203 108.20791626 C70.71627122 109.86966413 69.73940894 111.52613025 68.76220703 113.18237305 C68.20831299 114.12709473 67.65441895 115.07181641 67.08374023 116.04516602 C65.32473989 118.67614725 63.85777897 120.56399006 61.39892578 122.56518555 C58.3767395 123.0933075 58.3767395 123.0933075 54.79785156 123.13037109 C54.14366241 123.14219925 53.48947327 123.1540274 52.81546021 123.16621399 C50.65804284 123.19904673 48.50188885 123.20205803 46.34423828 123.2019043 C44.83974698 123.21222272 43.33526063 123.22328626 41.83078003 123.23506165 C38.67839612 123.25448673 35.52645576 123.2579183 32.37402344 123.25146484 C28.34267679 123.24547156 24.31363521 123.28967922 20.28276253 123.34735394 C17.17532573 123.38440727 14.06844165 123.38925191 10.96081161 123.38508034 C9.47526564 123.38794593 7.98969622 123.40197117 6.50436783 123.42755699 C-5.01774865 123.60516381 -5.01774865 123.60516381 -8.76226807 121.14564514 C-10.3421977 119.3652819 -11.475175 117.65719136 -12.60107422 115.56518555 C-13.20693359 114.6410083 -13.81279297 113.71683105 -14.43701172 112.76464844 C-15.19884766 111.41487915 -15.19884766 111.41487915 -15.97607422 110.0378418 C-16.56251709 109.00965332 -17.14895996 107.98146484 -17.75317383 106.92211914 C-18.36298096 105.83495605 -18.97278809 104.74779297 -19.60107422 103.62768555 C-20.91361436 101.30794684 -22.22726876 98.98887565 -23.54248047 96.6706543 C-24.04117393 95.78890533 -24.04117393 95.78890533 -24.54994202 94.88934326 C-26.86152808 90.81746276 -29.25434873 86.80234479 -31.69091797 82.8034668 C-32.33738281 81.73281982 -32.98384766 80.66217285 -33.64990234 79.55908203 C-34.88125844 77.52565725 -36.12548943 75.49995669 -37.38427734 73.48339844 C-42.68666771 64.65146976 -42.68666771 64.65146976 -42.24829102 59.7644043 C-40.63701168 54.2893367 -37.4640283 49.48283513 -34.53857422 44.62768555 C-33.81423025 43.39866966 -33.09126699 42.16883907 -32.36962891 40.93823242 C-30.87822991 38.4027677 -29.37598488 35.87422563 -27.86425781 33.35083008 C-26.01952273 30.27113005 -24.19496414 27.18019074 -22.37916565 24.08335876 C-20.71051877 21.23959465 -19.03089445 18.40235976 -17.35107422 15.56518555 C-16.73224365 14.51596924 -16.11341309 13.46675293 -15.47583008 12.38574219 C-14.89325439 11.4137085 -14.31067871 10.4416748 -13.71044922 9.44018555 C-13.20481445 8.59198242 -12.69917969 7.7437793 -12.17822266 6.86987305 C-8.60113628 1.64267562 -6.45962846 0.06689706 0 0 Z " fill="#363636" transform="translate(68.60107421875,34.434814453125)"/>
<path d="M0 0 C1.24101974 -0.01354271 1.24101974 -0.01354271 2.5071106 -0.02735901 C4.25714499 -0.0418624 6.00723362 -0.05074847 7.75732422 -0.05444336 C10.4289942 -0.06633363 13.09834923 -0.11550905 15.76953125 -0.16601562 C17.47134291 -0.17548093 19.17316874 -0.18271545 20.875 -0.1875 C22.06897903 -0.21679848 22.06897903 -0.21679848 23.28707886 -0.24668884 C27.36954692 -0.21363808 29.07075928 -0.01478144 32.39624023 2.55395508 C34.51228228 5.29589883 36.33532926 7.99599735 38.05078125 11.00390625 C38.96053711 12.58365234 38.96053711 12.58365234 39.88867188 14.1953125 C40.50548828 15.28457031 41.12230469 16.37382813 41.7578125 17.49609375 C43.00069157 19.66571444 44.2441545 21.83500079 45.48828125 24.00390625 C46.03250732 24.96184082 46.5767334 25.91977539 47.13745117 26.90673828 C48.21867477 28.7663176 49.37711644 30.58129966 50.5703125 32.37109375 C51.40026122 38.80319632 49.24741928 42.65993321 46.0703125 47.99609375 C45.61833496 48.77791016 45.16635742 49.55972656 44.70068359 50.36523438 C43.33838308 52.70936877 41.95484504 55.04004443 40.5703125 57.37109375 C39.80113456 58.70127474 39.0328358 60.0319647 38.265625 61.36328125 C32.66522738 70.88652619 32.66522738 70.88652619 28.5703125 72.37109375 C25.76753508 72.59880694 23.06604549 72.72273242 20.26171875 72.7421875 C19.45798325 72.75121597 18.65424774 72.76024445 17.82615662 72.76954651 C16.129178 72.78402913 14.4321438 72.79293081 12.73510742 72.79663086 C10.14471184 72.80853905 7.55669082 72.85774905 4.96679688 72.90820312 C3.31511575 72.91766683 1.66342005 72.92490212 0.01171875 72.9296875 C-0.75925644 72.94921982 -1.53023163 72.96875214 -2.3245697 72.98887634 C-6.17504575 72.95670753 -8.14416514 72.59112933 -11.22387695 70.21777344 C-13.46665606 67.32338446 -15.35730276 64.45041769 -17.1640625 61.265625 C-17.48755676 60.70034592 -17.81105103 60.13506683 -18.14434814 59.55265808 C-19.16372794 57.76716946 -20.17177366 55.97557474 -21.1796875 54.18359375 C-21.87036568 52.97028838 -22.56176581 51.75739368 -23.25390625 50.54492188 C-30.48534867 37.8361988 -30.48534867 37.8361988 -29.4296875 32.37109375 C-27.67810959 28.53170087 -25.4788713 25.00697963 -23.2421875 21.43359375 C-22.66404297 20.48291016 -22.08589844 19.53222656 -21.49023438 18.55273438 C-20.35242941 16.6872485 -19.20566497 14.82719299 -18.04931641 12.97314453 C-17.01640636 11.31369997 -15.99640218 9.64610325 -14.99365234 7.96826172 C-14.34904053 6.89729248 -14.34904053 6.89729248 -13.69140625 5.8046875 C-13.13972778 4.87547485 -13.13972778 4.87547485 -12.5769043 3.92749023 C-9.30144866 -0.51622751 -4.97658941 0.03335852 0 0 Z " fill="#FCFCFC" transform="translate(85.4296875,59.62890625)"/>
</svg>
